# xmcd CD database file
#
# Track frame offsets:
#	150
#	16523
#	23132
#	33065
#	39902
#	50796
#	58993
#	72647
#	80183
#	88138
#	103777
#	115210
#	124902
#	136165
#	151012
#	159136
#	175632
#	185312
#	200271
#	209584
#	227134
#	235479
#	247596
#	259663
#	265169
#	277213
#	289050
#	291088
#	304405
#
# Disc length: 4080 seconds
#
# Revision: 0
# Processed by: cddbd v1.5.1PL0 Copyright (c) Steve Scherf et al.
# Submitted via: CDex 1.51
#
DISCID=9d0fee1d
DTITLE=Various Artist - Awake My Soul and Sing
DYEAR=2003
DGENRE=Hymns
TTITLE0=Surely the Presence of the Lord is in this Place
TTITLE1=Words of Introduction
TTITLE2=Holy, Holy, Holy
TTITLE3=Angels We Have Heard on High
TTITLE4=The Old Rugged Cross
TTITLE5=Christ the Lord Has Risen
TTITLE6=Softly and Tenderly
TTITLE7=Joyful Joyful
TTITLE8=I Need Thee Every Hour
TTITLE9=The Lord's Prayer
TTITLE10=Something Beautiful
TTITLE11=To God Be the Glory
TTITLE12=Hark The Hearld Angels Sing
TTITLE13=Just a Closer Walk with Thee
TTITLE14=Holy God We Praise Thy Name
TTITLE15=It Is Well With My Soul
TTITLE16=Crown Him with Many Crowns
TTITLE17=O Holy Night
TTITLE18=O How I Love Jesus
TTITLE19=We Have This Moment
TTITLE20=Love Divine All Loves Excelling
TTITLE21=Sweet Hour of Prayer
TTITLE22=What a Friend We Have in Jesus
TTITLE23=Joy to the World
TTITLE24=How Great Thou Art
TTITLE25=Amazing Grace
TTITLE26=Closing
TTITLE27=How Can I Keep From Singing
TTITLE28=Copyright
EXTD=YEAR: 2003
EXTT0=
EXTT1=
EXTT2=
EXTT3=
EXTT4=
EXTT5=
EXTT6=
EXTT7=
EXTT8=
EXTT9=
EXTT10=
EXTT11=
EXTT12=
EXTT13=
EXTT14=
EXTT15=
EXTT16=
EXTT17=
EXTT18=
EXTT19=
EXTT20=
EXTT21=
EXTT22=
EXTT23=
EXTT24=
EXTT25=
EXTT26=
EXTT27=
EXTT28=
PLAYORDER=
